<svg width="20" height="20" viewBox="0 0 20 20" fill="none" xmlns="http://www.w3.org/2000/svg">
<path fill-rule="evenodd" clip-rule="evenodd" d="M10.0001 1.66699C5.39768 1.66699 1.66675 5.3982 1.66675 10.0003C1.66675 14.6024 5.39768 18.3337 10.0001 18.3337C14.6019 18.3337 18.3334 14.6022 18.3334 10.0003C18.3334 5.39848 14.6019 1.66699 10.0001 1.66699ZM10.0001 2.91699C13.9116 2.91699 17.0834 6.08884 17.0834 10.0003C17.0834 13.9118 13.9116 17.0837 10.0001 17.0837C6.08806 17.0837 2.91675 13.9121 2.91675 10.0003C2.91675 6.08854 6.08806 2.91699 10.0001 2.91699ZM7.48034 8.29675C7.23606 8.11468 6.88879 8.13411 6.66643 8.35552C6.42182 8.59907 6.42097 8.99479 6.66452 9.2394L9.55702 12.1444L9.62721 12.2052C9.87227 12.3877 10.2207 12.3674 10.4428 12.1444L13.3353 9.2394L13.3957 9.16917C13.5767 8.9241 13.5558 8.57693 13.3334 8.35552L13.2632 8.29515C13.0181 8.11413 12.6709 8.13505 12.4495 8.35742L9.99908 10.817L7.55031 8.35742L7.48034 8.29675Z" fill="#B2B2B2"/>
</svg>
