<svg width="40" height="40" viewBox="0 0 40 40" fill="none" xmlns="http://www.w3.org/2000/svg">
<path d="M20 40C8.94492 40 0 31.0418 0 20C0 8.94492 8.95819 0 20 0C31.0551 0 40 8.95819 40 20C40.0133 31.0551 31.0551 40 20 40Z" fill="#B5E2DC"/>
<mask id="mask0_1694_34967" style="mask-type:alpha" maskUnits="userSpaceOnUse" x="0" y="0" width="40" height="40">
<path d="M20 40C8.94492 40 0 31.0418 0 20C0 8.94492 8.95819 0 20 0C31.0551 0 40 8.95819 40 20C40.0133 31.0551 31.0551 40 20 40Z" fill="#F7C0B5"/>
</mask>
<g mask="url(#mask0_1694_34967)">
<path d="M31.1466 36.8409C31.0533 36.9076 30.9466 36.9742 30.8533 37.0409C30.7466 37.1076 30.6533 37.1742 30.5466 37.2276C30.4533 37.2809 30.3733 37.3342 30.2799 37.3876C30.2666 37.4009 30.2533 37.4009 30.2399 37.4142C29.9333 37.6009 29.6133 37.7742 29.2933 37.9342C29.1999 37.9876 29.0933 38.0409 28.9999 38.0809C28.9999 38.0809 28.9866 38.0942 28.9733 38.0942C28.8666 38.1476 28.7599 38.2009 28.6533 38.2542C28.4399 38.3609 28.2133 38.4542 27.9999 38.5476C27.8933 38.6009 27.7733 38.6409 27.6666 38.6809C27.5599 38.7209 27.4399 38.7742 27.3333 38.8142C27.2266 38.8542 27.1066 38.9076 26.9999 38.9476C26.9999 38.9476 26.9999 38.9476 26.9866 38.9476C26.8799 38.9876 26.7599 39.0276 26.6533 39.0676C26.4133 39.1476 26.1599 39.2276 25.9199 39.3076C25.8399 39.3342 25.7466 39.3609 25.6666 39.3876C25.4133 39.4676 25.1599 39.5342 24.9066 39.5876C24.8133 39.6142 24.7199 39.6276 24.6133 39.6542C24.3733 39.7076 24.1199 39.7609 23.8799 39.8142C23.8266 39.8276 23.7866 39.8276 23.7333 39.8409C23.6533 39.8542 23.5599 39.8676 23.4799 39.8809C23.3599 39.8942 23.2533 39.9209 23.1333 39.9342C23.0799 39.9476 23.0266 39.9476 22.9733 39.9609C22.9066 39.9742 22.8266 39.9876 22.7466 39.9876C22.5333 40.0142 22.3066 40.0409 22.0933 40.0676C22.0266 40.0809 21.9466 40.0809 21.8799 40.0942H21.8666C21.7733 40.1076 21.6799 40.1076 21.5866 40.1209C21.4933 40.1342 21.3999 40.1342 21.3066 40.1342C21.2533 40.1342 21.1866 40.1476 21.1333 40.1476C21.0266 40.1476 20.9333 40.1609 20.8399 40.1609C20.7066 40.1609 20.5866 40.1742 20.4533 40.1742C20.3199 40.1742 20.1999 40.1742 20.0666 40.1742C19.9733 40.1742 19.8799 40.1742 19.7866 40.1742C14.1733 40.0942 9.10662 37.7076 5.50662 33.9209C5.50662 33.9209 5.50662 33.9076 5.49329 33.9076C5.90662 33.0942 7.43995 31.6276 9.03995 30.4142C11.0666 28.8809 13.9333 27.9342 13.9333 27.9342C13.9333 27.9342 15.8133 27.6276 22.7866 29.0809C28.1066 30.2009 30.3733 34.7476 31.1466 36.8409Z" fill="#C99589"/>
<path d="M24.2667 32.7742C23.9867 34.1475 22.1734 34.9609 19.1201 33.7342C15.3734 32.2142 13.9334 27.9342 13.9334 27.9342C13.7334 24.8675 13.2667 22.2409 13.2667 22.2409C17.6001 21.8675 22.7201 26.9342 22.7201 26.9342L23.3067 29.4409C23.3601 29.6542 23.4667 29.8409 23.6267 29.9742C23.9067 30.4542 24.4534 31.8942 24.2667 32.7742Z" fill="#C99589"/>
<path d="M23.6267 29.9877C21.08 29.8543 19.2 29.481 17.1867 25.8677C18.8934 27.3743 20.9067 27.9477 23.0267 28.2143L23.3067 29.441C23.36 29.6677 23.4667 29.8543 23.6267 29.9877Z" fill="#A56663"/>
<path d="M28.8934 13.921C29.1334 15.041 29.2534 15.9476 28.6001 18.9343C27.9468 21.921 29.2001 24.9076 26.0534 27.641C23.9334 29.481 20.2268 29.8276 17.2668 27.8143C16.2668 27.1343 15.3468 26.1876 14.6001 24.9476C14.0135 23.9743 13.3335 23.0543 12.5735 22.2143C11.5201 21.0676 10.2535 18.761 10.8801 14.681C11.8935 8.04095 18.4668 7.28095 22.3468 8.01429C26.2268 8.74762 28.2401 10.961 28.8934 13.921Z" fill="#C99589"/>
<path d="M16.1333 19.1342C16.1333 19.1342 15.72 17.1342 13.7733 17.3742C12.0933 17.5876 11.5067 21.6142 15.32 22.7342" fill="#C99589"/>
<path d="M15.2 20.9076C15.2 20.9076 14.72 20.601 14.7734 20.0676C14.8534 19.441 14.7734 19.0543 14.48 18.9343C13.7467 18.6276 13.6 19.481 13.6267 19.5876" stroke="#423232" stroke-width="0.57786" stroke-miterlimit="10" stroke-linecap="round" stroke-linejoin="round"/>
<path d="M25.3735 22.2008C25.3735 22.2008 25.8801 22.2275 26.3601 21.6541C26.6268 21.3341 26.8535 20.9341 26.7068 20.8141C26.5601 20.6808 24.1468 21.0541 23.9868 21.3741C23.8268 21.6941 24.7601 22.2008 25.3735 22.2008Z" fill="#A56663"/>
<path d="M25.7734 17.7209C25.7734 17.7209 25.8 18.9876 26.6134 20.4009C26.9734 21.0276 26.4267 22.0543 25.2401 22.2276" stroke="#423232" stroke-width="0.57786" stroke-miterlimit="10" stroke-linecap="round" stroke-linejoin="round"/>
<path d="M11.6248 27.4267C11.6248 27.4267 13.5715 26.6534 13.9315 26.6267L13.9581 26.9334C13.9581 26.9334 12.4115 27.6 12.3181 27.7067C12.2381 27.8 11.6248 27.4267 11.6248 27.4267Z" fill="#7E5D6D"/>
<path d="M35.6382 44.7199H1.93152C1.93152 44.7199 2.13152 38.5333 4.15818 34.1199C5.69152 30.7866 9.37152 28.5866 12.0515 27.6266C12.8115 27.3599 13.3982 27.0666 13.9448 26.9199C13.9448 26.9866 13.9848 27.4799 13.9848 27.5333C13.9848 27.5333 16.0915 29.5999 20.8382 29.8533C23.0382 29.9733 23.2515 28.5999 23.2515 28.5999C23.5048 28.5466 23.7448 28.4799 23.9848 28.3999C24.0648 28.3733 24.6248 28.1466 24.6915 28.1199C26.4115 28.5733 28.5182 29.8533 31.5715 32.4133C35.0248 35.3333 35.6382 44.7199 35.6382 44.7199Z" fill="#423232"/>
<mask id="mask1_1694_34967" style="mask-type:alpha" maskUnits="userSpaceOnUse" x="1" y="26" width="35" height="19">
<path d="M35.6382 44.7202H1.93152C1.93152 44.7202 2.13152 38.5335 4.15818 34.1202C5.69152 30.7868 9.37152 28.5868 12.0515 27.6268C12.8115 27.3602 13.3982 27.0668 13.9448 26.9202C13.9448 26.9868 13.9848 27.4802 13.9848 27.5335C13.9848 27.5335 16.0915 29.6002 20.8382 29.8535C23.0382 29.9735 23.2515 28.6002 23.2515 28.6002C23.5048 28.5468 23.7448 28.4802 23.9848 28.4002C24.0648 28.3735 24.6248 28.1468 24.6915 28.1202C26.4115 28.5735 28.5182 29.8535 31.5715 32.4135C35.0248 35.3335 35.6382 44.7202 35.6382 44.7202Z" fill="#423232"/>
</mask>
<g mask="url(#mask1_1694_34967)">
<path d="M13.9581 29.1469C15.3581 31.1202 19.0914 34.1335 22.078 34.7069C23.5047 34.9735 25.5447 30.0802 23.6914 28.1069C22.1047 26.4135 15.3581 25.9735 14.2781 26.7202C12.9581 27.6002 13.6114 28.6669 13.9581 29.1469Z" stroke="#FFFF8D" stroke-width="0.9631" stroke-miterlimit="10"/>
</g>
<path d="M29.1448 31.16C30.0064 31.16 30.7048 30.4616 30.7048 29.6C30.7048 28.7385 30.0064 28.04 29.1448 28.04C28.2833 28.04 27.5848 28.7385 27.5848 29.6C27.5848 30.4616 28.2833 31.16 29.1448 31.16Z" fill="#FFFF8D"/>
<path d="M8.53146 44.72L7.93146 39.7866" stroke="#544D4D" stroke-width="0.57786" stroke-miterlimit="10" stroke-linecap="round" stroke-linejoin="round"/>
<path d="M31.8116 38.0935C31.8116 38.0935 31.4115 39.0668 31.5315 40.0402C31.6515 41.0135 31.9982 42.4402 31.5049 44.7202" stroke="#544D4D" stroke-width="0.57786" stroke-miterlimit="10" stroke-linecap="round" stroke-linejoin="round"/>
<path d="M11.6249 27.4267C11.8782 27.3467 12.3182 27.4267 12.4516 27.6534C12.9716 28.5067 14.2249 31 14.7449 35.9467C15.1582 39.8134 14.5316 46.7734 14.5316 46.7734L1.5849 46.16C1.5849 46.16 1.97157 39.5867 3.1049 35.1734C4.21157 30.8934 7.11823 28.9734 11.6249 27.4267Z" fill="white"/>
<path d="M25.0248 28.24C25.0248 28.24 29.1448 35.9866 27.9448 46.3333H36.8381C36.8381 46.3333 36.7981 38.12 34.7981 33.6533C32.7981 29.2 25.7981 27.8933 25.7981 27.8933C25.7981 27.8933 25.3581 28.1066 25.0248 28.24Z" fill="white"/>
<path d="M25.0248 28.24L24.7048 28.1466C24.7048 28.1466 25.1715 27.92 25.3715 27.7866L25.4915 27.72C25.4915 27.72 26.1315 28.0133 26.3582 28.12C26.5848 28.2266 25.5715 28.72 25.5715 28.72C25.5715 28.72 25.0648 28.24 25.0248 28.24Z" fill="#7E5D6D"/>
<path d="M10.5182 32C10.5182 32 8.67815 33.2933 8.85149 34.6667C9.02482 36.04 14.6915 44.64 14.6915 44.64C14.6915 44.64 15.3582 39.9733 14.5982 34.6933C14.5982 34.6933 14.0515 33.96 13.0515 33.2267C12.3848 32.76 11.5315 32.2667 10.5182 32Z" fill="#AD7E5A"/>
<path d="M32.038 34.6668C32.0914 33.8134 30.118 32.4268 30.118 32.4268C29.3314 32.6534 28.7714 33.0134 28.3714 33.4001C27.478 34.2401 27.358 35.1868 27.358 35.1868L27.4114 35.4268C28.358 39.5468 28.078 44.9068 28.078 44.9068C28.078 44.9068 31.9847 35.5201 32.038 34.6668Z" fill="#AD7E5A"/>
<path d="M14.5849 34.6934C14.5849 34.6934 13.6516 33.7067 12.5316 33.0134C10.0516 31.48 6.41158 30.7734 6.37158 29.5867C6.34491 28.2534 10.7716 25.4667 13.7049 24.52C13.7049 24.5334 13.7049 24.5467 13.7049 24.56C13.7049 24.5734 13.7049 24.5867 13.7049 24.6134C13.7049 24.64 13.7049 24.6667 13.7182 24.6934C13.7182 24.7334 13.7316 24.7734 13.7316 24.8134C13.7316 24.84 13.7316 24.8534 13.7449 24.88C13.8382 25.68 13.9182 26.5734 13.9849 27.52V27.5334C13.9849 27.5334 13.3716 27.7334 13.8116 30.7867C13.9316 31.5334 14.3849 32.84 14.5849 34.6934Z" fill="#AD7E5A"/>
<path d="M27.3582 35.1202C27.3582 35.1202 26.4649 31.6535 26.0249 30.5468C25.5849 29.4535 24.7582 28.2135 24.7182 28.1468C25.2382 27.9068 25.7049 27.6002 26.1182 27.2402C26.5315 26.8802 26.8649 26.5202 27.1449 26.1602C28.6382 26.9468 32.9182 29.4268 33.1315 30.6668C33.3715 32.0135 28.1849 31.9335 27.3582 35.1202Z" fill="#AD7E5A"/>
<path d="M22.5448 37.0668C23.4064 37.0668 24.1048 36.3683 24.1048 35.5068C24.1048 34.6452 23.4064 33.9468 22.5448 33.9468C21.6832 33.9468 20.9848 34.6452 20.9848 35.5068C20.9848 36.3683 21.6832 37.0668 22.5448 37.0668Z" fill="#FFFF8D"/>
<path d="M22.5449 36.3068C22.9867 36.3068 23.3449 35.9486 23.3449 35.5068C23.3449 35.065 22.9867 34.7068 22.5449 34.7068C22.103 34.7068 21.7449 35.065 21.7449 35.5068C21.7449 35.9486 22.103 36.3068 22.5449 36.3068Z" fill="#FFBE71"/>
<path d="M30.118 32.4268C29.3314 32.6534 28.7714 33.0134 28.3714 33.4001C27.478 34.2401 27.358 35.1868 27.358 35.1868" stroke="#894B33" stroke-width="0.57786" stroke-miterlimit="10" stroke-linecap="round" stroke-linejoin="round"/>
<path d="M14.5848 34.6935C14.5848 34.6935 14.0381 33.9602 13.0381 33.2268C12.3848 32.7468 11.5314 32.2668 10.5048 31.9868" stroke="#894B33" stroke-width="0.57786" stroke-miterlimit="10" stroke-linecap="round" stroke-linejoin="round"/>
<path fill-rule="evenodd" clip-rule="evenodd" d="M22.2746 17.8061C22.0878 17.6501 21.8042 17.4716 21.4364 17.4142C21.1322 17.3651 20.8188 17.4143 20.567 17.517C20.4401 17.5688 20.3203 17.6376 20.2217 17.7227C20.1249 17.8063 20.0337 17.9187 19.9933 18.0602C19.9495 18.2136 20.0383 18.3735 20.1917 18.4174C20.3192 18.4538 20.4511 18.3986 20.5173 18.291L20.5113 18.4596C20.4846 18.7796 20.7246 19.0462 21.0446 19.0596C21.3646 19.0729 21.6313 18.8329 21.6446 18.5262L21.6579 18.1529C21.6598 18.1308 21.6603 18.1089 21.6597 18.0874C21.7537 18.135 21.8357 18.1924 21.9043 18.2497C21.9716 18.3059 22.0231 18.3596 22.0571 18.3983C22.074 18.4175 22.0863 18.4328 22.0938 18.4424L22.1013 18.4523L22.1022 18.4535C22.1942 18.5831 22.3737 18.6141 22.5039 18.5226C22.6345 18.4309 22.6659 18.2507 22.5742 18.1201L22.3378 18.2862C22.5742 18.1201 22.5741 18.12 22.5741 18.1199L22.5739 18.1197L22.5737 18.1193L22.573 18.1184L22.5712 18.116L22.5662 18.109C22.5621 18.1035 22.5566 18.0961 22.5496 18.0873C22.5358 18.0696 22.5164 18.0455 22.4914 18.0171C22.4416 17.9604 22.369 17.8849 22.2746 17.8061Z" fill="#423232"/>
<path fill-rule="evenodd" clip-rule="evenodd" d="M26.1624 18.4063C25.9823 18.4062 25.9823 18.406 25.9823 18.4059V18.4054L25.9823 18.4046L25.9823 18.4027L25.9824 18.3983L25.9828 18.3876C25.9832 18.3796 25.9838 18.3698 25.985 18.3584C25.9873 18.3358 25.9917 18.3063 25.9998 18.2723C26.016 18.2047 26.0483 18.1147 26.1133 18.0243C26.2538 17.8287 26.5027 17.6907 26.8846 17.6907C27.2357 17.6907 27.4851 17.8549 27.6389 18.0086C27.7152 18.085 27.7704 18.1608 27.8069 18.2179C27.8253 18.2467 27.8393 18.2714 27.8492 18.29C27.8542 18.2993 27.8582 18.3071 27.8612 18.3132L27.865 18.321L27.8663 18.3239L27.8669 18.3251L27.8671 18.3257L27.8672 18.3259C27.8673 18.326 27.8673 18.3261 27.6118 18.443L27.8673 18.3261C27.9337 18.4713 27.8698 18.6427 27.7247 18.709C27.5804 18.775 27.41 18.7122 27.3429 18.5688L27.3396 18.5625C27.3359 18.5555 27.3293 18.5437 27.3197 18.5288C27.3004 18.4985 27.2707 18.4578 27.2307 18.4176L27.2178 18.753C27.2044 19.0463 26.9511 19.273 26.6578 19.2596C26.3644 19.2463 26.1378 18.9929 26.1511 18.6996L26.1523 18.6696C26.052 18.6243 25.9823 18.5234 25.9823 18.4063L26.1624 18.4063L26.1624 18.4063Z" fill="#423232"/>
<path d="M22.8844 16.1396C23.1645 16.2329 23.4444 15.9796 23.3911 15.6729C23.3644 15.5129 23.2978 15.3529 23.1644 15.2329C22.7644 14.8729 21.1111 14.5529 20.1111 15.0196C19.2311 15.4463 21.6044 15.7129 22.8844 16.1396Z" fill="#423232"/>
<path d="M26.871 16.3529C26.6443 16.4329 26.4043 16.1929 26.4443 15.9129C26.4577 15.7663 26.511 15.6196 26.6177 15.5129C26.9377 15.1929 28.031 14.9396 28.7243 15.4329C29.3243 15.8463 27.911 15.9663 26.871 16.3529Z" fill="#423232"/>
<path d="M26.1548 24.1197C26.1741 24.4279 25.9429 24.9672 25.5192 25.3524C23.3425 24.0234 22.3602 24.7168 22.3602 24.7168C21.5897 23.5418 21.7631 21.9431 23.6315 23.1566C24.9413 23.9848 25.731 24.1197 26.1548 24.1197Z" fill="#423232"/>
<path d="M25.5191 25.3526C25.0568 25.7571 24.3634 26.0075 23.4195 25.6223C22.9765 25.4489 22.6298 25.1022 22.3601 24.7169C22.3601 24.7169 23.3425 24.0235 25.5191 25.3526Z" fill="#FE9DAB"/>
<path fill-rule="evenodd" clip-rule="evenodd" d="M22.2014 22.4958C22.6139 22.345 23.1547 22.5064 23.7874 22.9133C24.8021 23.5616 25.4832 23.7623 25.8906 23.8111C26.0938 23.8355 26.2299 23.8222 26.3075 23.8073C26.3464 23.7999 26.3713 23.7919 26.3832 23.7875C26.3868 23.7862 26.3893 23.7852 26.3906 23.7847C26.5291 23.7147 26.6991 23.7668 26.7742 23.9039C26.8508 24.0438 26.7995 24.2194 26.6595 24.2961L26.5259 24.052C26.6595 24.2961 26.6592 24.2962 26.659 24.2964L26.6583 24.2967L26.6571 24.2974C26.6566 24.2977 26.6561 24.2979 26.6556 24.2982C26.6552 24.2984 26.6547 24.2986 26.6543 24.2989C26.6523 24.2999 26.6501 24.3011 26.6477 24.3023C26.6428 24.3047 26.6372 24.3074 26.6306 24.3104C26.6175 24.3163 26.6009 24.3233 26.5806 24.3306C26.5405 24.3452 26.4866 24.3613 26.4181 24.3745C26.3865 24.5281 26.3273 24.6914 26.2482 24.8495C26.1185 25.1086 25.9221 25.3798 25.658 25.604C25.1161 26.0641 24.3089 26.3073 23.291 25.8896C22.7856 25.684 22.3838 25.2948 22.1057 24.8695C21.8285 24.4455 21.6578 23.9605 21.6382 23.5359C21.6191 23.1248 21.7476 22.6616 22.2014 22.4958ZM25.8177 24.3844C25.3007 24.3217 24.5384 24.0789 23.4759 23.4001L23.4751 23.3996C22.8656 23.0074 22.5374 22.9882 22.3997 23.0385C22.3034 23.0737 22.2007 23.1932 22.2154 23.5092C22.2294 23.8118 22.3573 24.1984 22.5894 24.5533C22.8204 24.9067 23.1384 25.2037 23.5091 25.3545L23.51 25.3548C24.3219 25.6881 24.9014 25.4883 25.284 25.1635C25.4822 24.9952 25.6325 24.7885 25.7315 24.5908C25.7686 24.5167 25.7969 24.4472 25.8177 24.3844ZM26.3831 23.7886L26.3831 23.7886L26.3831 23.7886C26.3831 23.7886 26.3831 23.7886 26.3831 23.7886Z" fill="#423232"/>
<path fill-rule="evenodd" clip-rule="evenodd" d="M22.5225 24.9558C22.3925 25.0442 22.2151 25.0124 22.1241 24.8834C22.0321 24.7531 22.0631 24.5728 22.1935 24.4808L22.3595 24.7159C22.1935 24.4808 22.1937 24.4806 22.194 24.4804L22.1944 24.4801L22.1955 24.4794L22.1979 24.4777C22.1996 24.4766 22.2015 24.4752 22.2038 24.4738C22.2082 24.4708 22.2137 24.4673 22.2203 24.4633C22.2333 24.4552 22.2506 24.4452 22.2721 24.4339C22.3151 24.4113 22.3749 24.3836 22.452 24.3566C22.6066 24.3024 22.8283 24.2514 23.1193 24.2473C23.7029 24.2392 24.5456 24.4195 25.6697 25.1059C25.8059 25.189 25.8488 25.3668 25.7657 25.503C25.6825 25.6392 25.5047 25.6822 25.3685 25.5991C24.3159 24.9563 23.5792 24.8188 23.1274 24.8251C22.9008 24.8283 22.7409 24.8676 22.6433 24.9019C22.5942 24.9191 22.5603 24.9352 22.5411 24.9453C22.5315 24.9504 22.5255 24.954 22.5231 24.9554C22.5229 24.9556 22.5227 24.9557 22.5225 24.9558Z" fill="#423232"/>
<path d="M29.2931 9.63185C28.9731 8.65851 28.5197 7.81851 28.0531 7.36518C27.0797 6.40518 26.7597 7.69851 26.7597 7.69851C26.7597 7.69851 25.2797 4.93851 23.2397 4.56518C21.7864 4.29851 22.1731 5.97851 22.1731 5.97851C22.1731 5.97851 20.4131 4.09851 17.9731 4.09851C16.0397 4.09851 16.7731 5.76518 16.7731 5.76518C16.7731 5.76518 15.3997 3.79185 13.9464 4.13851C12.4931 4.48518 13.0397 7.35185 13.0397 7.35185C11.8797 4.44518 9.9064 7.27185 9.57307 13.3518C9.37307 16.9652 10.4397 19.3118 11.1597 20.4718C11.7997 21.6185 12.5197 22.4185 12.9197 23.1385C13.4931 24.1652 13.7731 25.2852 13.7731 25.2852C14.9064 23.2585 14.9197 22.1652 14.9197 22.1652C11.5864 20.8852 12.1864 17.1652 13.8131 16.9518C15.5197 16.7385 16.0531 18.2585 16.1464 18.6318C16.7597 17.8985 15.0931 13.1385 18.0531 11.9785C20.9197 10.8585 22.7064 12.5118 25.7731 12.9252C26.7331 13.0585 27.6397 12.3518 28.3331 12.4718C28.5464 12.5118 28.7064 12.6718 28.7731 12.8852C28.8264 13.0852 28.8797 13.2852 28.9331 13.4985C29.1197 14.3118 32.5864 10.2718 29.2931 9.63185Z" fill="#423232"/>
<path d="M14.6819 19.5731C14.6819 19.5731 13.6152 19.4131 13.6952 20.9064C13.7352 21.6664 13.7352 22.0798 13.7219 22.2931C13.7085 22.4398 13.8019 22.5731 13.9352 22.6264C14.0952 22.6931 14.2685 22.6264 14.3485 22.4664C14.4685 22.2531 14.6019 21.9598 14.6019 21.7198C14.6019 21.3198 15.0285 20.9598 15.0285 20.9598C15.0285 20.9598 14.6419 20.6264 14.6819 19.5731Z" fill="white"/>
<path d="M17.9086 45.2797C17.8019 45.1597 13.6152 37.9997 14.2419 35.3064C14.6686 33.453 14.1086 31.3197 13.6152 29.4397C13.4152 28.6664 13.2286 27.9464 13.1219 27.3064C12.9352 26.1997 13.0686 25.1464 13.5219 24.173C14.0152 23.0797 13.9352 22.133 13.9352 22.1197L14.2019 22.093C14.2019 22.133 14.2819 23.133 13.7619 24.2797C13.3352 25.1997 13.2152 26.213 13.3886 27.2664C13.4952 27.893 13.6819 28.613 13.8819 29.3864C14.3886 31.293 14.9486 33.4664 14.5086 35.3864C13.9219 37.9464 18.0952 45.1064 18.1219 45.133L17.9086 45.2797Z" fill="white"/>
<path d="M13.7352 21.6798C13.7485 21.9732 13.7352 22.1732 13.7352 22.2932C13.7219 22.4398 13.8152 22.5732 13.9485 22.6265C14.1085 22.6932 14.2819 22.6265 14.3619 22.4665C14.4819 22.2532 14.6152 21.9598 14.6152 21.7198C14.6152 21.7065 14.6152 21.6798 14.6152 21.6665C14.3352 21.7732 14.0152 21.8532 13.7352 21.6798Z" fill="#E5E5E5"/>
<path d="M26.2819 30.5464C26.1885 31.1598 26.1752 32.1331 26.1485 33.2664C26.1085 35.4531 24.8152 43.9731 24.1885 45.3198L23.9485 45.2131C24.5485 43.9064 25.8419 35.4264 25.8819 33.2664C25.9085 32.1331 25.9219 31.1464 26.0152 30.5064C26.2152 29.1598 26.0685 28.1464 25.9885 27.7198C26.0285 27.6798 26.0685 27.6531 26.1085 27.6131C26.1485 27.5864 26.1752 27.5464 26.2152 27.5198C26.2952 27.8664 26.5219 28.9731 26.2819 30.5464Z" fill="white"/>
</g>
</svg>
