<svg width="20" height="20" viewBox="0 0 20 20" fill="none" xmlns="http://www.w3.org/2000/svg">
<path fill-rule="evenodd" clip-rule="evenodd" d="M13.0965 14.1445H7.07983C6.73483 14.1445 6.45483 13.8645 6.45483 13.5195C6.45483 13.1745 6.73483 12.8945 7.07983 12.8945H13.0965C13.4415 12.8945 13.7215 13.1745 13.7215 13.5195C13.7215 13.8645 13.4415 14.1445 13.0965 14.1445Z" fill="#0C0900"/>
<path fill-rule="evenodd" clip-rule="evenodd" d="M13.0965 10.6562H7.07983C6.73483 10.6562 6.45483 10.3762 6.45483 10.0312C6.45483 9.68625 6.73483 9.40625 7.07983 9.40625H13.0965C13.4415 9.40625 13.7215 9.68625 13.7215 10.0312C13.7215 10.3762 13.4415 10.6562 13.0965 10.6562Z" fill="#0C0900"/>
<path fill-rule="evenodd" clip-rule="evenodd" d="M9.37542 7.17578H7.07959C6.73459 7.17578 6.45459 6.89578 6.45459 6.55078C6.45459 6.20578 6.73459 5.92578 7.07959 5.92578H9.37542C9.72042 5.92578 10.0004 6.20578 10.0004 6.55078C10.0004 6.89578 9.72042 7.17578 9.37542 7.17578Z" fill="#0C0900"/>
<mask id="mask0_2159_9812" style="mask-type:luminance" maskUnits="userSpaceOnUse" x="2" y="1" width="16" height="18">
<path fill-rule="evenodd" clip-rule="evenodd" d="M2.5 1.66699H17.6372V18.2585H2.5V1.66699Z" fill="white"/>
</mask>
<g mask="url(#mask0_2159_9812)">
<path fill-rule="evenodd" clip-rule="evenodd" d="M13.2573 2.91699L6.84976 2.92033C4.90976 2.93199 3.74976 4.13199 3.74976 6.13116V13.7945C3.74976 15.807 4.92059 17.0087 6.87976 17.0087L13.2873 17.0062C15.2273 16.9945 16.3873 15.7928 16.3873 13.7945V6.13116C16.3873 4.11866 15.2173 2.91699 13.2573 2.91699ZM6.88059 18.2587C4.26059 18.2587 2.49976 16.4645 2.49976 13.7945V6.13116C2.49976 3.43699 4.20559 1.68616 6.84559 1.67033L13.2564 1.66699H13.2573C15.8773 1.66699 17.6373 3.46116 17.6373 6.13116V13.7945C17.6373 16.4878 15.9314 18.2395 13.2914 18.2562L6.88059 18.2587Z" fill="#0C0900"/>
</g>
</svg>
