<svg width="20" height="20" viewBox="0 0 20 20" fill="none" xmlns="http://www.w3.org/2000/svg">
<path fill-rule="evenodd" clip-rule="evenodd" d="M10.2055 18.3336C9.07635 18.3336 7.97552 18.3211 6.88635 18.2986C5.49302 18.2711 4.52885 17.3678 4.37135 15.9411C4.10885 13.5745 3.65969 7.99612 3.65552 7.94029C3.62719 7.59612 3.88385 7.29445 4.22802 7.26695C4.56719 7.25779 4.87385 7.49612 4.90135 7.83945C4.90552 7.89612 5.35385 13.4553 5.61385 15.8036C5.70302 16.6145 6.14052 17.0328 6.91219 17.0486C8.99552 17.0928 11.1214 17.0953 13.413 17.0536C14.233 17.0378 14.6764 16.6278 14.768 15.7978C15.0264 13.4695 15.4764 7.89612 15.4814 7.83945C15.5089 7.49612 15.813 7.25612 16.1539 7.26695C16.498 7.29529 16.7547 7.59612 16.7272 7.94029C16.7222 7.99695 16.2705 13.5895 16.0105 15.9353C15.8489 17.3911 14.8872 18.277 13.4355 18.3036C12.3247 18.3228 11.253 18.3336 10.2055 18.3336Z" fill="#FF4834"/>
<path fill-rule="evenodd" clip-rule="evenodd" d="M17.2567 5.82422H3.125C2.78 5.82422 2.5 5.54422 2.5 5.19922C2.5 4.85422 2.78 4.57422 3.125 4.57422H17.2567C17.6017 4.57422 17.8817 4.85422 17.8817 5.19922C17.8817 5.54422 17.6017 5.82422 17.2567 5.82422Z" fill="#FF4834"/>
<path fill-rule="evenodd" clip-rule="evenodd" d="M14.5337 5.82449C13.5853 5.82449 12.762 5.14866 12.5753 4.21866L12.3728 3.20533C12.3303 3.05116 12.1545 2.91699 11.9545 2.91699H8.42701C8.22701 2.91699 8.05117 3.05116 8.00034 3.24366L7.80617 4.21866C7.62034 5.14866 6.79617 5.82449 5.84784 5.82449C5.50284 5.82449 5.22284 5.54449 5.22284 5.19949C5.22284 4.85449 5.50284 4.57449 5.84784 4.57449C6.20284 4.57449 6.51117 4.32116 6.58117 3.97283L6.78367 2.95949C6.98951 2.18283 7.66201 1.66699 8.42701 1.66699H11.9545C12.7195 1.66699 13.392 2.18283 13.5895 2.92199L13.8012 3.97283C13.8703 4.32116 14.1787 4.57449 14.5337 4.57449C14.8787 4.57449 15.1587 4.85449 15.1587 5.19949C15.1587 5.54449 14.8787 5.82449 14.5337 5.82449Z" fill="#FF4834"/>
</svg>
