<svg width="672" height="576" viewBox="0 0 672 576" fill="none" xmlns="http://www.w3.org/2000/svg">
<g id="No Results">
<g id="circle">
<path id="Stroke 1" d="M21.2135 264.442V270.43" stroke="#D2D8DF" stroke-width="1.94318" stroke-linecap="round"/>
<g id="Group 8">
<path id="Stroke 2" d="M8.4364 267.686L13.085 272.722" stroke="#D2D8DF" stroke-width="1.94318" stroke-linecap="round"/>
<path id="Stroke 4" d="M3 281.093H9.57302" stroke="#D2D8DF" stroke-width="1.94318" stroke-linecap="round"/>
<path id="Stroke 6" d="M7.90466 294.737L12.5532 289.701" stroke="#D2D8DF" stroke-width="1.94318" stroke-linecap="round"/>
</g>
<path id="Stroke 9" d="M21.2135 296.373V290.386" stroke="#D2D8DF" stroke-width="1.94318" stroke-linecap="round"/>
<path id="Stroke 10" d="M30.6948 292.383L26.9022 288.391" stroke="#D2D8DF" stroke-width="1.94318" stroke-linecap="round"/>
<path id="Stroke 11" d="M38.2799 282.403H32.5911" stroke="#D2D8DF" stroke-width="1.94318" stroke-linecap="round"/>
<path id="Stroke 12" d="M34.4872 268.433L30.6947 272.424" stroke="#D2D8DF" stroke-width="1.94318" stroke-linecap="round"/>
<path id="Stroke 13" d="M326.513 3V6.99148" stroke="#D2D8DF" stroke-width="1.94318" stroke-linecap="round"/>
<path id="Stroke 15" d="M315.135 14.9751H318.928" stroke="#D2D8DF" stroke-width="1.94318" stroke-linecap="round"/>
<path id="Stroke 16" d="M326.513 26.9485V22.957" stroke="#D2D8DF" stroke-width="1.94318" stroke-linecap="round"/>
<path id="Stroke 17" d="M335.995 14.9751H332.202" stroke="#D2D8DF" stroke-width="1.94318" stroke-linecap="round"/>
<path id="Stroke 18" d="M106.546 170.643V176.63" stroke="#D2D8DF" stroke-width="1.94318" stroke-linecap="round"/>
<path id="Stroke 19" d="M89.4791 188.603H95.1679" stroke="#D2D8DF" stroke-width="1.94318" stroke-linecap="round"/>
<path id="Stroke 20" d="M106.546 204.57V198.583" stroke="#D2D8DF" stroke-width="1.94318" stroke-linecap="round"/>
<path id="Stroke 21" d="M121.716 188.603H116.027" stroke="#D2D8DF" stroke-width="1.94318" stroke-linecap="round"/>
<g id="Group 42">
<path id="Stroke 22" d="M514.725 388.254C519.257 388.254 522.933 392.123 522.933 396.894C522.933 401.666 519.257 405.533 514.725 405.533C510.194 405.533 506.518 401.666 506.518 396.894" stroke="#D2D8DF" stroke-width="1.94318" stroke-linecap="round"/>
<path id="Fill 26" fill-rule="evenodd" clip-rule="evenodd" d="M552.287 309.87C557.16 308.27 564.629 301.998 566.358 295.25C567.926 301.215 574.499 308.27 580.43 308.804C573.754 311.292 567.371 318.683 566.358 324.489C565.669 318.571 556.841 310.733 552.287 309.87Z" fill="#EBECEE"/>
<path id="Fill 28" fill-rule="evenodd" clip-rule="evenodd" d="M52.0712 385.594C54.5085 384.794 58.2417 381.658 59.1062 378.284C59.8902 381.265 63.176 384.794 66.1413 385.061C62.8041 386.304 59.6133 390 59.1062 392.903C58.7617 389.944 54.3475 386.024 52.0712 385.594Z" fill="#EBECEE"/>
<path id="Fill 30" fill-rule="evenodd" clip-rule="evenodd" d="M97.3012 107.97C97.3012 111.671 94.4517 114.669 90.9374 114.669C87.4215 114.669 84.5737 111.671 84.5737 107.97C84.5737 104.27 87.4215 101.271 90.9374 101.271C94.4517 101.271 97.3012 104.27 97.3012 107.97Z" fill="#D1D8DF"/>
<path id="Fill 32" fill-rule="evenodd" clip-rule="evenodd" d="M522.244 125.959C522.244 132.143 517.481 137.156 511.608 137.156C505.732 137.156 500.97 132.143 500.97 125.959C500.97 119.775 505.732 114.762 511.608 114.762C517.481 114.762 522.244 119.775 522.244 125.959Z" fill="#EBECEE"/>
<path id="Fill 34" fill-rule="evenodd" clip-rule="evenodd" d="M669.577 95.6214C669.577 100.528 665.8 104.504 661.141 104.504C656.48 104.504 652.704 100.528 652.704 95.6214C652.704 90.7151 656.48 86.7393 661.141 86.7393C665.8 86.7393 669.577 90.7151 669.577 95.6214Z" fill="#EBECEE"/>
<path id="Stroke 36" fill-rule="evenodd" clip-rule="evenodd" d="M216.234 510.452C216.234 513.545 213.853 516.051 210.915 516.051C207.979 516.051 205.598 513.545 205.598 510.452C205.598 507.359 207.979 504.853 210.915 504.853C213.853 504.853 216.234 507.359 216.234 510.452Z" stroke="#D2D8DF" stroke-width="1.94318" stroke-linecap="round"/>
<path id="Stroke 38" fill-rule="evenodd" clip-rule="evenodd" d="M213.069 64.9312C213.069 68.6326 210.22 71.6306 206.705 71.6306C203.191 71.6306 200.342 68.6326 200.342 64.9312C200.342 61.2316 203.191 58.2319 206.705 58.2319C210.22 58.2319 213.069 61.2316 213.069 64.9312Z" stroke="#D2D8DF" stroke-width="1.94318" stroke-linecap="round"/>
<path id="Stroke 40" fill-rule="evenodd" clip-rule="evenodd" d="M375.397 572.455C371.331 574.084 366.78 571.933 365.232 567.654C363.685 563.373 365.727 558.581 369.795 556.954C373.86 555.325 378.411 557.474 379.958 561.755C381.506 566.036 379.464 570.827 375.397 572.455Z" stroke="#D2D8DF" stroke-width="1.94318" stroke-linecap="round"/>
</g>
</g>
<g id="search">
<g id="documents">
<path id="Fill 1" fill-rule="evenodd" clip-rule="evenodd" d="M372.974 414.122H217.471C206.526 414.122 197.567 404.665 197.567 393.107V159.721C197.567 148.163 206.526 138.71 217.471 138.71H372.974C383.924 138.71 392.883 148.163 392.883 159.721V393.107C392.883 404.665 383.924 414.122 372.974 414.122Z" fill="#E0E2EE"/>
<path id="Fill 3" fill-rule="evenodd" clip-rule="evenodd" d="M359.7 424.101H204.197C193.252 424.101 184.293 414.644 184.293 403.086V169.699C184.293 158.141 193.252 148.689 204.197 148.689H359.7C370.65 148.689 379.609 158.141 379.609 169.699V403.086C379.609 414.644 370.65 424.101 359.7 424.101Z" fill="#E8EBF2"/>
<path id="Fill 5" fill-rule="evenodd" clip-rule="evenodd" d="M346.788 431.978H190.963C179.996 431.978 171.018 422.56 171.018 411.05V178.63C171.018 167.12 179.996 157.707 190.963 157.707H346.788C357.76 157.707 366.738 167.12 366.738 178.63V411.05C366.738 422.56 357.76 431.978 346.788 431.978Z" fill="#D8DBEA"/>
<path id="Fill 8" fill-rule="evenodd" clip-rule="evenodd" d="M346.788 431.978H190.963C179.996 431.978 171.018 422.56 171.018 411.05V178.63C171.018 167.12 179.996 157.707 190.963 157.707H346.788C357.76 157.707 366.738 167.12 366.738 178.63V411.05C366.738 422.56 357.76 431.978 346.788 431.978Z" fill="#F1F2F7"/>
<path id="Fill 11" fill-rule="evenodd" clip-rule="evenodd" d="M324.328 228.518H209.233C205.946 228.518 203.255 225.824 203.255 222.533C203.255 219.237 205.946 216.543 209.233 216.543H324.328C327.615 216.543 330.306 219.237 330.306 222.533C330.306 225.824 327.615 228.518 324.328 228.518Z" fill="#E0E2EE"/>
<path id="Fill 13" fill-rule="evenodd" clip-rule="evenodd" d="M324.328 264.442H209.233C205.946 264.442 203.255 261.748 203.255 258.457C203.255 255.161 205.946 252.467 209.233 252.467H324.328C327.615 252.467 330.306 255.161 330.306 258.457C330.306 261.748 327.615 264.442 324.328 264.442Z" fill="#E0E2EE"/>
<path id="Fill 15" fill-rule="evenodd" clip-rule="evenodd" d="M324.328 300.366H209.233C205.946 300.366 203.255 297.672 203.255 294.381C203.255 291.09 205.946 288.391 209.233 288.391H324.328C327.615 288.391 330.306 291.09 330.306 294.381C330.306 297.672 327.615 300.366 324.328 300.366Z" fill="#E0E2EE"/>
<path id="Fill 17" fill-rule="evenodd" clip-rule="evenodd" d="M324.328 336.288H209.233C205.946 336.288 203.255 333.594 203.255 330.303C203.255 327.007 205.946 324.313 209.233 324.313H324.328C327.615 324.313 330.306 327.007 330.306 330.303C330.306 333.594 327.615 336.288 324.328 336.288Z" fill="#E0E2EE"/>
<path id="Fill 19" fill-rule="evenodd" clip-rule="evenodd" d="M269.311 372.212H209.258C205.958 372.212 203.255 369.518 203.255 366.227C203.255 362.931 205.958 360.237 209.258 360.237H269.311C272.612 360.237 275.314 362.931 275.314 366.227C275.314 369.518 272.612 372.212 269.311 372.212Z" fill="#E0E2EE"/>
</g>
<g id="search_2">
<path id="Fill 21" fill-rule="evenodd" clip-rule="evenodd" d="M390.522 325.784C367.507 350.001 331.878 352.733 306.011 334.036C302.706 331.603 299.559 328.871 296.625 325.784C295.115 324.199 293.691 322.564 292.349 320.843C289.666 317.405 287.316 313.739 285.39 309.95C281.998 303.552 279.691 296.762 278.432 289.744C274.368 267.736 280.444 244.046 296.625 227.025C312.845 209.952 335.357 203.599 356.273 207.834C362.937 209.2 369.394 211.628 375.475 215.157C379.08 217.229 382.516 219.702 385.787 222.525C387.419 223.932 388.972 225.435 390.478 227.025C393.417 230.112 396.052 233.418 398.32 236.902C416.094 264.115 413.493 301.612 390.522 325.784Z" fill="white" fill-opacity="0.1"/>
<path id="Fill 23" fill-rule="evenodd" clip-rule="evenodd" d="M384.082 321.014C360.138 346.218 321.336 346.213 297.388 321.014C273.471 295.842 273.471 255 297.419 229.801C321.336 204.629 360.138 204.629 384.055 229.801C407.998 255 407.998 295.842 384.082 321.014ZM396.37 216.854C365.636 184.508 315.834 184.508 285.1 216.854C254.371 249.195 254.344 301.643 285.073 333.988C313.044 363.417 356.886 366.071 387.722 341.908C390.734 339.545 393.634 336.896 396.401 333.988C399.163 331.076 401.681 328.024 403.922 324.854C426.88 292.396 424.336 246.288 396.37 216.854Z" fill="#E0E2EE"/>
<path id="Fill 25" fill-rule="evenodd" clip-rule="evenodd" d="M517.32 455.917L516.03 457.275C507.493 466.263 493.515 466.263 484.975 457.275L406.156 374.322L438.502 340.28L517.32 423.233C525.86 432.221 525.86 446.928 517.32 455.917Z" fill="#023436"/>
<path id="Fill 27" fill-rule="evenodd" clip-rule="evenodd" d="M405.621 322.318L428.912 346.831L412.376 364.229L389.09 339.716C392.163 337.305 395.118 334.601 397.946 331.634C400.765 328.668 403.334 325.553 405.621 322.318Z" fill="#E0E2EE"/>
<path id="Fill 29" fill-rule="evenodd" clip-rule="evenodd" d="M516.14 422.212L484.001 456.033L478.215 449.939L510.35 416.118L516.14 422.212Z" fill="#E6F6F5"/>
<path id="Fill 31" fill-rule="evenodd" clip-rule="evenodd" d="M440.289 341.451L407.27 376.203L402.364 371.041L435.384 336.289L440.289 341.451Z" fill="#E6F6F5"/>
<path id="Fill 33" fill-rule="evenodd" clip-rule="evenodd" d="M368.231 221.132L287.253 306.352C284.204 300.6 282.13 294.496 281.002 288.187L350.97 214.548C356.961 215.781 362.765 217.959 368.231 221.132Z" fill="white" fill-opacity="0.5"/>
<path id="Fill 35" fill-rule="evenodd" clip-rule="evenodd" d="M394.779 241.388L307.233 328.305C304.098 326.133 301.114 323.689 298.332 320.926C296.899 319.503 295.544 318.045 294.276 316.504L382.888 228.519C384.44 229.782 385.914 231.127 387.342 232.549C390.124 235.312 392.628 238.27 394.779 241.388Z" fill="white" fill-opacity="0.5"/>
</g>
</g>
</g>
</svg>
