<svg width="20" height="20" viewBox="0 0 20 20" fill="none" xmlns="http://www.w3.org/2000/svg">
<mask id="mask0_2159_9808" style="mask-type:luminance" maskUnits="userSpaceOnUse" x="1" y="1" width="18" height="18">
<path fill-rule="evenodd" clip-rule="evenodd" d="M1.66669 1.66699H18.3333V18.3337H1.66669V1.66699Z" fill="white"/>
</mask>
<g mask="url(#mask0_2159_9808)">
<path fill-rule="evenodd" clip-rule="evenodd" d="M6.38669 2.91699C4.27919 2.91699 2.91669 4.36116 2.91669 6.59699V13.4037C2.91669 15.6395 4.27919 17.0837 6.38669 17.0837H13.61C15.72 17.0837 17.0834 15.6395 17.0834 13.4037V6.59699C17.0834 4.36116 15.72 2.91699 13.6117 2.91699H6.38669ZM13.61 18.3337H6.38669C3.56335 18.3337 1.66669 16.352 1.66669 13.4037V6.59699C1.66669 3.64866 3.56335 1.66699 6.38669 1.66699H13.6117C16.4359 1.66699 18.3334 3.64866 18.3334 6.59699V13.4037C18.3334 16.352 16.4359 18.3337 13.61 18.3337Z" fill="#0C0900"/>
</g>
<path fill-rule="evenodd" clip-rule="evenodd" d="M7.36568 9.08203C6.85735 9.08203 6.44568 9.4937 6.44568 10.0004C6.44568 10.507 6.85735 10.9187 7.36401 10.9187C7.86985 10.9187 8.28235 10.507 8.28235 10.0004C8.28235 9.49453 7.87068 9.08286 7.36568 9.08203ZM7.36401 12.1687C6.16818 12.1687 5.19568 11.1954 5.19568 10.0004C5.19568 8.80453 6.16818 7.83203 7.36401 7.83203C8.56151 7.83286 9.53235 8.80536 9.53235 10.0004C9.53235 11.1954 8.55985 12.1687 7.36401 12.1687Z" fill="#0C0900"/>
<path fill-rule="evenodd" clip-rule="evenodd" d="M14.1748 12.1692C13.8298 12.1692 13.5498 11.8892 13.5498 11.5442V10.625H8.90979C8.56479 10.625 8.28479 10.3458 8.28479 10C8.28479 9.655 8.56479 9.375 8.90979 9.375H14.1748C14.5198 9.375 14.7998 9.655 14.7998 10V11.5442C14.7998 11.8892 14.5198 12.1692 14.1748 12.1692Z" fill="#0C0900"/>
<path fill-rule="evenodd" clip-rule="evenodd" d="M11.8179 12.1692C11.4729 12.1692 11.1929 11.8892 11.1929 11.5442V10C11.1929 9.655 11.4729 9.375 11.8179 9.375C12.1629 9.375 12.4429 9.655 12.4429 10V11.5442C12.4429 11.8892 12.1629 12.1692 11.8179 12.1692Z" fill="#0C0900"/>
</svg>
