<svg width="21" height="20" viewBox="0 0 21 20" fill="none" xmlns="http://www.w3.org/2000/svg">
<path fill-rule="evenodd" clip-rule="evenodd" d="M10.4999 8.03442C9.39156 8.03442 8.49072 8.93609 8.49072 10.0444C8.49072 11.1519 9.39156 12.0528 10.4999 12.0528C11.6082 12.0528 12.5099 11.1519 12.5099 10.0444C12.5099 8.93609 11.6082 8.03442 10.4999 8.03442ZM10.4999 13.3028C8.70239 13.3028 7.24072 11.8411 7.24072 10.0444C7.24072 8.24692 8.70239 6.78442 10.4999 6.78442C12.2974 6.78442 13.7599 8.24692 13.7599 10.0444C13.7599 11.8411 12.2974 13.3028 10.4999 13.3028Z" fill="#B2B2B2"/>
<mask id="mask0_3614_5820" style="mask-type:luminance" maskUnits="userSpaceOnUse" x="2" y="3" width="17" height="14">
<path fill-rule="evenodd" clip-rule="evenodd" d="M2.16699 3.3335H18.8335V16.7543H2.16699V3.3335Z" fill="white"/>
</mask>
<g mask="url(#mask0_3614_5820)">
<path fill-rule="evenodd" clip-rule="evenodd" d="M3.47512 10.0438C5.02512 13.4679 7.63595 15.5038 10.5001 15.5046C13.3643 15.5038 15.9751 13.4679 17.5251 10.0438C15.9751 6.62042 13.3643 4.58459 10.5001 4.58375C7.63678 4.58459 5.02512 6.62042 3.47512 10.0438ZM10.5018 16.7546H10.4985H10.4976C7.05095 16.7521 3.95595 14.3363 2.21762 10.2904C2.15012 10.1329 2.15012 9.95459 2.21762 9.79709C3.95595 5.75209 7.05178 3.33625 10.4976 3.33375C10.4993 3.33292 10.4993 3.33292 10.5001 3.33375C10.5018 3.33292 10.5018 3.33292 10.5026 3.33375C13.9493 3.33625 17.0443 5.75209 18.7826 9.79709C18.851 9.95459 18.851 10.1329 18.7826 10.2904C17.0451 14.3363 13.9493 16.7521 10.5026 16.7546H10.5018Z" fill="#B2B2B2"/>
</g>
</svg>
