<svg width="57" height="57" viewBox="0 0 57 57" fill="none" xmlns="http://www.w3.org/2000/svg">
<g clip-path="url(#clip0_1694_40741)">
<path d="M50.3447 32.8701C52.532 30.3691 52.532 26.6309 50.3447 24.1299C49.1504 22.7643 48.5679 20.9624 48.7344 19.1558C49.0384 15.856 46.8517 12.8315 43.6201 12.0974C41.8477 11.6948 40.3157 10.5734 39.3913 9.00841C37.7043 6.15204 34.1505 4.98023 31.1023 6.28917C29.4407 7.00267 27.5583 7.00232 25.8967 6.28882C22.8488 4.98003 19.2987 6.13999 17.6079 8.99373C16.6826 10.5556 15.1523 11.6687 13.381 12.0661C10.1507 12.7909 7.96258 15.8289 8.26552 19.1257C8.43144 20.9312 7.84674 22.7468 6.65553 24.1138C4.47278 26.6186 4.46403 30.3647 6.65122 32.8656C7.84872 34.2349 8.43153 36.0444 8.26508 37.8558C7.96166 41.1577 10.1525 44.1929 13.386 44.9273C15.1537 45.3289 16.6814 46.4425 17.6054 48.002C19.2964 50.8562 22.8484 52.0134 25.8935 50.6969C27.5572 49.9776 29.4442 49.9755 31.1097 50.6906C34.1541 51.998 37.7022 50.8349 39.391 47.9844C40.3165 46.4224 41.8462 45.3055 43.6166 44.9034C46.8502 44.1689 49.0385 41.1449 48.7343 37.843C48.5678 36.0364 49.1504 34.2357 50.3447 32.8701ZM28.4852 35.0592C26.0339 37.5172 22.0525 37.5173 19.6011 35.0595L16.898 32.3493C15.9469 31.3957 15.9479 29.852 16.9003 28.8997C17.8549 27.945 19.4032 27.9467 20.3559 28.9034L21.3343 29.886C22.8287 31.3869 25.2583 31.3874 26.7534 29.8872L35.9669 20.6423C36.9199 19.686 38.468 19.6847 39.4226 20.6393C40.3751 21.5918 40.3762 23.1359 39.4249 24.0897L28.4852 35.0592Z" fill="#0AA970"/>
</g>
<defs>
<clipPath id="clip0_1694_40741">
<rect width="56" height="56" fill="white" transform="translate(0.5 0.5)"/>
</clipPath>
</defs>
</svg>
